<svg width="1280" height="760" viewBox="0 0 1280 760" fill="none" xmlns="http://www.w3.org/2000/svg" role="img" aria-labelledby="title desc">
  <title id="title">Minimalist editorial ledger scene</title>
  <desc id="desc">A ledger-like task and notes layout with subtle accents, ruled rows, and precise labels.</desc>
  <rect width="1280" height="760" rx="34" fill="#F6F1EA"/>
  <rect x="72" y="64" width="1136" height="632" rx="22" fill="#FBF8F3" stroke="#D8C8B8"/>
  <rect x="108" y="102" width="1064" height="52" rx="12" fill="#FCFAF7" stroke="#D8C8B8"/>
  <rect x="136" y="120" width="142" height="16" rx="8" fill="#2A211C"/>
  <rect x="108" y="192" width="330" height="462" rx="18" fill="#FCFAF7" stroke="#D8C8B8"/>
  <rect x="138" y="226" width="118" height="12" rx="6" fill="#7C624F"/>
  <rect x="138" y="264" width="270" height="2" fill="#D8C8B8"/>
  <rect x="138" y="294" width="270" height="2" fill="#E0D4C8"/>
  <rect x="138" y="324" width="270" height="2" fill="#E0D4C8"/>
  <rect x="474" y="192" width="698" height="462" rx="18" fill="#FCFAF7" stroke="#D8C8B8"/>
  <rect x="508" y="226" width="154" height="12" rx="6" fill="#2A211C"/>
  <rect x="508" y="270" width="630" height="20" rx="10" fill="#F5EEE7"/>
  <rect x="508" y="306" width="630" height="20" rx="10" fill="#F5EEE7"/>
  <rect x="508" y="342" width="630" height="20" rx="10" fill="#F5EEE7"/>
  <rect x="508" y="378" width="630" height="20" rx="10" fill="#F5EEE7"/>
  <rect x="508" y="428" width="178" height="30" rx="15" fill="#7C624F"/>
  <rect x="508" y="490" width="280" height="2" fill="#D8C8B8"/>
  <rect x="824" y="490" width="314" height="2" fill="#D8C8B8"/>
  <rect x="508" y="520" width="280" height="2" fill="#E0D4C8"/>
  <rect x="824" y="520" width="314" height="2" fill="#E0D4C8"/>
</svg>