<svg width="1280" height="760" viewBox="0 0 1280 760" fill="none" xmlns="http://www.w3.org/2000/svg" role="img" aria-labelledby="title desc">
  <title id="title">Default high-agency command scene</title>
  <desc id="desc">A command-center fragment with urgency cards, KPI modules, and offset surfaces.</desc>
  <rect width="1280" height="760" rx="36" fill="#EEF3FF"/>
  <rect x="60" y="58" width="1160" height="644" rx="30" fill="#F9FBFF" stroke="#D7E3FF"/>
  <rect x="94" y="92" width="404" height="216" rx="30" fill="#101A33"/>
  <rect x="128" y="128" width="148" height="16" rx="8" fill="#89A8FF"/>
  <rect x="128" y="166" width="226" height="60" rx="22" fill="#FFFFFF" opacity="0.96"/>
  <rect x="128" y="248" width="148" height="36" rx="18" fill="#2457FF"/>
  <circle cx="430" cy="136" r="86" fill="#2457FF" opacity="0.18"/>
  <rect x="526" y="78" width="638" height="178" rx="32" fill="#FFFFFF" stroke="#D7E3FF"/>
  <rect x="560" y="114" width="144" height="16" rx="8" fill="#0F172A" opacity="0.88"/>
  <rect x="560" y="154" width="560" height="20" rx="10" fill="#F2F6FF"/>
  <rect x="560" y="188" width="486" height="20" rx="10" fill="#F2F6FF"/>
  <path d="M452 332L612 252" stroke="#2457FF" stroke-width="14" stroke-linecap="round" opacity="0.22"/>
  <rect x="94" y="346" width="306" height="298" rx="30" fill="#FFFFFF" stroke="#D7E3FF"/>
  <rect x="128" y="380" width="126" height="14" rx="7" fill="#0F172A" opacity="0.86"/>
  <rect x="128" y="420" width="238" height="18" rx="9" fill="#EEF3FF"/>
  <rect x="128" y="452" width="238" height="18" rx="9" fill="#EEF3FF"/>
  <rect x="128" y="508" width="100" height="56" rx="22" fill="#2457FF"/>
  <rect x="244" y="508" width="100" height="56" rx="22" fill="#E4EBFF"/>
  <rect x="438" y="294" width="726" height="350" rx="34" fill="#FFFFFF" stroke="#D7E3FF"/>
  <rect x="472" y="328" width="152" height="16" rx="8" fill="#0F172A" opacity="0.88"/>
  <rect x="472" y="372" width="280" height="84" rx="24" fill="#101A33"/>
  <rect x="784" y="372" width="346" height="84" rx="24" fill="#F1F5FF" stroke="#D7E3FF"/>
  <rect x="472" y="488" width="658" height="20" rx="10" fill="#F3F7FF"/>
  <rect x="472" y="522" width="608" height="20" rx="10" fill="#F3F7FF"/>
  <rect x="472" y="556" width="532" height="20" rx="10" fill="#F3F7FF"/>
</svg>