<svg width="1440" height="980" viewBox="0 0 1440 980" fill="none" xmlns="http://www.w3.org/2000/svg" role="img" aria-labelledby="title desc">
  <title id="title">Premium polish hero</title>
  <desc id="desc">A premium staged workspace reveal with luminous halos, layered panels, and cinematic material depth.</desc>
  <rect width="1440" height="980" rx="44" fill="#F1EFFB"/>
  <defs>
    <linearGradient id="premium-surface" x1="222" y1="68" x2="1210" y2="912" gradientUnits="userSpaceOnUse">
      <stop stop-color="#FFFFFF"/>
      <stop offset="1" stop-color="#F3EEFF"/>
    </linearGradient>
    <linearGradient id="premium-cta" x1="1134" y1="110" x2="1248" y2="136" gradientUnits="userSpaceOnUse">
      <stop stop-color="#1A1231"/>
      <stop offset="1" stop-color="#7E63FF"/>
    </linearGradient>
    <filter id="premium-shadow" x="296" y="132" width="1060" height="352" filterUnits="userSpaceOnUse" color-interpolation-filters="sRGB">
      <feFlood flood-opacity="0" result="BackgroundImageFix"/>
      <feColorMatrix in="SourceAlpha" type="matrix" values="0 0 0 0 0 0 0 0 0 0 0 0 0 0 0 0 0 0 127 0" result="hardAlpha"/>
      <feOffset dy="24"/>
      <feGaussianBlur stdDeviation="24"/>
      <feColorMatrix type="matrix" values="0 0 0 0 0.109804 0 0 0 0 0.0705882 0 0 0 0 0.235294 0 0 0 0.24 0"/>
      <feBlend mode="normal" in2="BackgroundImageFix" result="effect1_dropShadow_0_1"/>
      <feBlend mode="normal" in="SourceGraphic" in2="effect1_dropShadow_0_1" result="shape"/>
    </filter>
  </defs>
  <circle cx="1110" cy="184" r="182" fill="#9A7CFF" opacity="0.18"/>
  <circle cx="1208" cy="186" r="118" fill="#FFFFFF" opacity="0.18"/>
  <rect x="70" y="58" width="1300" height="864" rx="36" fill="url(#premium-surface)"/>
  <rect x="86" y="74" width="1268" height="832" rx="30" stroke="#D8D0FB"/>
  <rect x="108" y="98" width="1224" height="58" rx="22" fill="#FFFFFF" stroke="#E4DBFF"/>
  <rect x="136" y="116" width="176" height="20" rx="10" fill="#171226" opacity="0.95"/>
  <rect x="1120" y="110" width="128" height="28" rx="14" fill="url(#premium-cta)"/>
  <rect x="1260" y="110" width="48" height="28" rx="14" fill="#EFE9FF" stroke="#DED3FF"/>
  <rect x="108" y="178" width="230" height="706" rx="28" fill="#FFFFFF" stroke="#E4DBFF"/>
  <rect x="134" y="212" width="112" height="14" rx="7" fill="#7B63FF" opacity="0.92"/>
  <rect x="134" y="248" width="176" height="14" rx="7" fill="#DFD7FF"/>
  <rect x="134" y="280" width="164" height="14" rx="7" fill="#ECE5FF"/>
  <rect x="134" y="312" width="172" height="14" rx="7" fill="#ECE5FF"/>
  <g filter="url(#premium-shadow)">
    <rect x="360" y="176" width="982" height="258" rx="36" fill="#181028"/>
  </g>
  <rect x="404" y="220" width="168" height="16" rx="8" fill="#B9ACFF"/>
  <rect x="404" y="258" width="408" height="72" rx="24" fill="#FFFFFF" opacity="0.96"/>
  <rect x="404" y="354" width="292" height="16" rx="8" fill="#D7CEFF"/>
  <rect x="404" y="392" width="156" height="40" rx="20" fill="#7A63FF"/>
  <circle cx="1128" cy="244" r="128" fill="#A285FF" opacity="0.22"/>
  <rect x="1010" y="222" width="220" height="128" rx="32" fill="#FFFFFF" opacity="0.12" stroke="#D4C8FF"/>
  <rect x="336" y="470" width="318" height="200" rx="32" fill="#FFFFFF" stroke="#E4DBFF"/>
  <rect x="352" y="486" width="286" height="168" rx="26" fill="#F6F2FF" stroke="#E9E0FF"/>
  <rect x="388" y="524" width="124" height="14" rx="7" fill="#171226" opacity="0.88"/>
  <rect x="388" y="562" width="96" height="56" rx="20" fill="#7B63FF"/>
  <rect x="500" y="562" width="96" height="56" rx="20" fill="#F1ECFF" stroke="#DFD3FF"/>
  <rect x="694" y="446" width="648" height="232" rx="34" fill="#FFFFFF" stroke="#E4DBFF"/>
  <rect x="712" y="462" width="612" height="196" rx="28" fill="#FBF9FF" stroke="#EEE7FF"/>
  <rect x="750" y="500" width="156" height="14" rx="7" fill="#171226" opacity="0.88"/>
  <rect x="750" y="542" width="538" height="20" rx="10" fill="#F1ECFF"/>
  <rect x="750" y="576" width="498" height="20" rx="10" fill="#F1ECFF"/>
  <rect x="750" y="610" width="576" height="20" rx="10" fill="#F1ECFF"/>
  <rect x="360" y="706" width="982" height="178" rx="32" fill="#FFFFFF" stroke="#E4DBFF"/>
  <rect x="378" y="722" width="946" height="144" rx="26" fill="#FAF8FF" stroke="#EFE8FF"/>
  <rect x="414" y="756" width="158" height="14" rx="7" fill="#171226" opacity="0.88"/>
  <rect x="414" y="794" width="882" height="24" rx="12" fill="#F0EBFF"/>
  <rect x="414" y="832" width="638" height="24" rx="12" fill="#F0EBFF"/>
</svg>