<svg width="1440" height="960" viewBox="0 0 1440 960" fill="none" xmlns="http://www.w3.org/2000/svg" role="img" aria-labelledby="title desc">
  <title id="title">Default high-agency workspace preview</title>
  <desc id="desc">An asymmetric workspace dashboard with bold hierarchy, premium blue accents, and energetic composition.</desc>
  <rect width="1440" height="960" rx="40" fill="#EEF3FF"/>
  <rect x="56" y="48" width="1328" height="864" rx="34" fill="#F8FAFF" stroke="#C9D8FF"/>
  <rect x="88" y="80" width="1264" height="60" rx="20" fill="#FFFFFF" stroke="#D6E1FF"/>
  <rect x="112" y="99" width="160" height="22" rx="11" fill="#0F172A" opacity="0.94"/>
  <rect x="1120" y="96" width="92" height="28" rx="14" fill="#2457FF"/>
  <rect x="1228" y="96" width="84" height="28" rx="14" fill="#DDE6FF"/>
  <rect x="88" y="164" width="226" height="716" rx="28" fill="#FFFFFF" stroke="#D6E1FF"/>
  <rect x="118" y="204" width="120" height="16" rx="8" fill="#2457FF" opacity="0.9"/>
  <rect x="118" y="246" width="166" height="14" rx="7" fill="#C7D5FF"/>
  <rect x="118" y="282" width="152" height="14" rx="7" fill="#D7E2FF"/>
  <rect x="118" y="318" width="176" height="14" rx="7" fill="#D7E2FF"/>
  <rect x="118" y="386" width="148" height="12" rx="6" fill="#9CB6FF" opacity="0.7"/>
  <rect x="118" y="416" width="144" height="12" rx="6" fill="#DCE5FF"/>
  <rect x="118" y="446" width="150" height="12" rx="6" fill="#DCE5FF"/>
  <rect x="118" y="476" width="124" height="12" rx="6" fill="#DCE5FF"/>
  <rect x="350" y="164" width="630" height="260" rx="34" fill="#0F172A"/>
  <rect x="392" y="208" width="148" height="18" rx="9" fill="#7CA1FF"/>
  <rect x="392" y="246" width="372" height="64" rx="20" fill="#FFFFFF" opacity="0.96"/>
  <rect x="392" y="332" width="266" height="18" rx="9" fill="#C6D5FF"/>
  <rect x="392" y="374" width="170" height="40" rx="20" fill="#2457FF"/>
  <circle cx="888" cy="214" r="92" fill="#2457FF" opacity="0.22"/>
  <rect x="800" y="252" width="138" height="104" rx="26" fill="#F8FAFF" opacity="0.15" stroke="#7CA1FF"/>
  <rect x="1014" y="194" width="338" height="230" rx="34" fill="#FFFFFF" stroke="#D6E1FF"/>
  <rect x="1048" y="228" width="138" height="16" rx="8" fill="#0F172A" opacity="0.88"/>
  <rect x="1048" y="264" width="250" height="12" rx="6" fill="#C8D6FF"/>
  <rect x="1048" y="300" width="270" height="12" rx="6" fill="#DCE5FF"/>
  <rect x="1048" y="338" width="122" height="46" rx="18" fill="#2457FF" opacity="0.14"/>
  <rect x="350" y="452" width="322" height="176" rx="30" fill="#FFFFFF" stroke="#D6E1FF"/>
  <rect x="382" y="486" width="120" height="14" rx="7" fill="#0F172A" opacity="0.86"/>
  <rect x="382" y="522" width="88" height="54" rx="22" fill="#2457FF"/>
  <rect x="484" y="522" width="88" height="54" rx="22" fill="#E2E9FF"/>
  <rect x="586" y="522" width="52" height="54" rx="18" fill="#F1F5FF" stroke="#D6E1FF"/>
  <rect x="702" y="452" width="650" height="176" rx="30" fill="#FFFFFF" stroke="#D6E1FF"/>
  <rect x="738" y="486" width="138" height="14" rx="7" fill="#0F172A" opacity="0.86"/>
  <rect x="738" y="530" width="566" height="18" rx="9" fill="#EEF3FF"/>
  <rect x="738" y="562" width="506" height="18" rx="9" fill="#EEF3FF"/>
  <rect x="738" y="594" width="590" height="18" rx="9" fill="#EEF3FF"/>
  <rect x="350" y="656" width="1002" height="224" rx="30" fill="#FFFFFF" stroke="#D6E1FF"/>
  <rect x="386" y="692" width="152" height="14" rx="7" fill="#0F172A" opacity="0.88"/>
  <rect x="386" y="732" width="930" height="26" rx="13" fill="#F4F7FF"/>
  <rect x="386" y="770" width="930" height="26" rx="13" fill="#F4F7FF"/>
  <rect x="386" y="808" width="630" height="26" rx="13" fill="#F4F7FF"/>
  <path d="M910 94L980 164" stroke="#2457FF" stroke-width="14" stroke-linecap="round" opacity="0.22"/>
</svg>