<svg width="1440" height="960" viewBox="0 0 1440 960" fill="none" xmlns="http://www.w3.org/2000/svg" role="img" aria-labelledby="title desc">
  <title id="title">Minimalist editorial workspace preview</title>
  <desc id="desc">A warm monochrome workspace layout with crisp borders, flat composition, and document-like rhythm.</desc>
  <rect width="1440" height="960" rx="40" fill="#F6F1EA"/>
  <rect x="70" y="58" width="1300" height="844" rx="22" fill="#FBF8F3" stroke="#D8C8B8"/>
  <rect x="94" y="84" width="1252" height="52" rx="14" fill="#FCFAF7" stroke="#D8C8B8"/>
  <rect x="118" y="102" width="142" height="16" rx="8" fill="#2A211C"/>
  <rect x="1142" y="98" width="78" height="24" rx="12" fill="#F0E5DA" stroke="#D0C0AF"/>
  <rect x="1232" y="98" width="86" height="24" rx="12" fill="#7C624F"/>
  <rect x="94" y="162" width="248" height="714" rx="18" fill="#FCFAF7" stroke="#D8C8B8"/>
  <rect x="122" y="196" width="112" height="12" rx="6" fill="#7C624F" opacity="0.88"/>
  <rect x="122" y="232" width="188" height="12" rx="6" fill="#D9CCBF"/>
  <rect x="122" y="264" width="168" height="12" rx="6" fill="#E4D8CC"/>
  <rect x="122" y="296" width="184" height="12" rx="6" fill="#E4D8CC"/>
  <rect x="122" y="352" width="138" height="10" rx="5" fill="#B9A18D" opacity="0.72"/>
  <rect x="122" y="378" width="150" height="10" rx="5" fill="#E4D8CC"/>
  <rect x="122" y="404" width="142" height="10" rx="5" fill="#E4D8CC"/>
  <rect x="372" y="162" width="974" height="206" rx="18" fill="#FCFAF7" stroke="#D8C8B8"/>
  <rect x="408" y="198" width="166" height="12" rx="6" fill="#7C624F"/>
  <rect x="408" y="234" width="468" height="40" rx="10" fill="#F5EEE7" stroke="#DED0C3"/>
  <rect x="408" y="292" width="302" height="12" rx="6" fill="#D8C8B8"/>
  <rect x="408" y="324" width="122" height="30" rx="15" fill="#2A211C"/>
  <rect x="940" y="198" width="362" height="134" rx="14" fill="#F8F3ED" stroke="#DED0C3"/>
  <rect x="968" y="224" width="92" height="10" rx="5" fill="#9E8876"/>
  <rect x="968" y="252" width="298" height="10" rx="5" fill="#D8C8B8"/>
  <rect x="968" y="280" width="272" height="10" rx="5" fill="#E6DBD0"/>
  <rect x="372" y="394" width="468" height="208" rx="18" fill="#FCFAF7" stroke="#D8C8B8"/>
  <rect x="404" y="428" width="112" height="12" rx="6" fill="#2A211C"/>
  <rect x="404" y="466" width="404" height="2" fill="#D8C8B8"/>
  <rect x="404" y="492" width="404" height="2" fill="#E0D4C8"/>
  <rect x="404" y="518" width="404" height="2" fill="#E0D4C8"/>
  <rect x="404" y="548" width="98" height="28" rx="14" fill="#7C624F"/>
  <rect x="868" y="394" width="478" height="208" rx="18" fill="#FCFAF7" stroke="#D8C8B8"/>
  <rect x="900" y="428" width="132" height="12" rx="6" fill="#2A211C"/>
  <rect x="900" y="468" width="414" height="18" rx="9" fill="#F4ECE4"/>
  <rect x="900" y="498" width="414" height="18" rx="9" fill="#F4ECE4"/>
  <rect x="900" y="528" width="322" height="18" rx="9" fill="#F4ECE4"/>
  <rect x="372" y="628" width="974" height="248" rx="18" fill="#FCFAF7" stroke="#D8C8B8"/>
  <rect x="404" y="664" width="148" height="12" rx="6" fill="#2A211C"/>
  <rect x="404" y="708" width="910" height="20" rx="10" fill="#F5EEE7"/>
  <rect x="404" y="742" width="910" height="20" rx="10" fill="#F5EEE7"/>
  <rect x="404" y="776" width="910" height="20" rx="10" fill="#F5EEE7"/>
  <rect x="404" y="810" width="640" height="20" rx="10" fill="#F5EEE7"/>
</svg>