<svg width="1440" height="960" viewBox="0 0 1440 960" fill="none" xmlns="http://www.w3.org/2000/svg" role="img" aria-labelledby="title desc">
  <title id="title">Redesign workflow preview</title>
  <desc id="desc">A process-oriented visual showing scan, diagnose, fix, and verify stages for redesigning an existing product.</desc>
  <rect width="1440" height="960" rx="40" fill="#F3F5F9"/>
  <rect x="72" y="74" width="1296" height="812" rx="32" fill="#FFFFFF" stroke="#DCE4F0"/>
  <rect x="116" y="124" width="1208" height="96" rx="28" fill="#F7FAFF" stroke="#E0E8F5"/>
  <rect x="154" y="156" width="168" height="16" rx="8" fill="#0F172A" opacity="0.9"/>
  <rect x="154" y="184" width="298" height="10" rx="5" fill="#B4C3DE"/>
  <rect x="154" y="248" width="250" height="520" rx="24" fill="#FBFCFE" stroke="#E1E8F3"/>
  <rect x="182" y="278" width="100" height="12" rx="6" fill="#2457FF" opacity="0.82"/>
  <rect x="182" y="312" width="180" height="12" rx="6" fill="#D8E3F7"/>
  <rect x="182" y="344" width="164" height="12" rx="6" fill="#E6EDF8"/>
  <rect x="182" y="390" width="194" height="118" rx="20" fill="#EEF4FF" stroke="#D9E5FC"/>
  <rect x="182" y="540" width="194" height="86" rx="20" fill="#F7FAFF" stroke="#E1E8F3"/>
  <rect x="182" y="646" width="194" height="86" rx="20" fill="#F7FAFF" stroke="#E1E8F3"/>
  <rect x="434" y="248" width="846" height="520" rx="24" fill="#FBFCFE" stroke="#E1E8F3"/>
  <rect x="470" y="286" width="196" height="14" rx="7" fill="#0F172A" opacity="0.88"/>
  <rect x="470" y="330" width="774" height="20" rx="10" fill="#F2F6FD"/>
  <rect x="470" y="364" width="612" height="20" rx="10" fill="#F2F6FD"/>
  <rect x="470" y="422" width="760" height="94" rx="20" fill="#FFFFFF" stroke="#E1E8F3"/>
  <rect x="470" y="536" width="760" height="94" rx="20" fill="#FFFFFF" stroke="#E1E8F3"/>
  <rect x="470" y="650" width="760" height="94" rx="20" fill="#FFFFFF" stroke="#E1E8F3"/>
  <rect x="118" y="812" width="1204" height="32" rx="16" fill="#F3F7FD" stroke="#E1E8F3"/>
  <g>
    <rect x="462" y="436" width="154" height="66" rx="22" fill="#EDF4FF" stroke="#CFE0FF"/>
    <circle cx="500" cy="469" r="18" fill="#2457FF" opacity="0.16"/>
    <text x="528" y="476" fill="#10243F" font-family="Arial, sans-serif" font-size="22" font-weight="700">Scan</text>
  </g>
  <g>
    <rect x="650" y="436" width="180" height="66" rx="22" fill="#F5F7FC" stroke="#DCE4F2"/>
    <circle cx="688" cy="469" r="18" fill="#64748B" opacity="0.14"/>
    <text x="716" y="476" fill="#10243F" font-family="Arial, sans-serif" font-size="22" font-weight="700">Diagnose</text>
  </g>
  <g>
    <rect x="864" y="436" width="132" height="66" rx="22" fill="#EDF8F4" stroke="#CBE9DC"/>
    <circle cx="898" cy="469" r="18" fill="#0F9F6E" opacity="0.16"/>
    <text x="926" y="476" fill="#10243F" font-family="Arial, sans-serif" font-size="22" font-weight="700">Fix</text>
  </g>
  <g>
    <rect x="1030" y="436" width="166" height="66" rx="22" fill="#F6F3FF" stroke="#E2D9FF"/>
    <circle cx="1066" cy="469" r="18" fill="#8B5CF6" opacity="0.16"/>
    <text x="1094" y="476" fill="#10243F" font-family="Arial, sans-serif" font-size="22" font-weight="700">Verify</text>
  </g>
  <path d="M616 469H650" stroke="#B9C8DE" stroke-width="8" stroke-linecap="round"/>
  <path d="M830 469H864" stroke="#B9C8DE" stroke-width="8" stroke-linecap="round"/>
  <path d="M996 469H1030" stroke="#B9C8DE" stroke-width="8" stroke-linecap="round"/>
</svg>